<svg id="svg" version="1.1" xmlns="http://www.w3.org/2000/svg" xmlns:xlink="http://www.w3.org/1999/xlink" width="200" height="57" viewBox="0, 0, 400,113.75"><g id="svgg"><path id="path0" d="M0.000 56.833 L 0.000 113.667 60.917 113.667 L 121.833 113.667 121.833 56.833 L 121.833 0.000 60.917 0.000 L 0.000 0.000 0.000 56.833 M138.167 56.833 L 138.167 113.667 200.000 113.667 L 261.833 113.667 261.833 56.833 L 261.833 0.000 200.000 0.000 L 138.167 0.000 138.167 56.833 M278.167 56.833 L 278.167 113.667 339.083 113.667 L 400.000 113.667 400.000 56.833 L 400.000 0.000 339.083 0.000 L 278.167 0.000 278.167 56.833 M345.921 16.015 C 346.152 16.743,346.826 16.833,351.987 16.833 L 356.818 16.833 356.924 17.399 C 357.056 18.099,357.318 18.167,359.919 18.167 L 361.796 18.167 361.906 18.750 L 362.015 19.333 363.841 19.333 C 365.652 19.333,365.667 19.336,365.667 19.730 C 365.667 20.355,366.024 20.508,367.777 20.633 C 369.362 20.746,369.419 20.764,369.475 21.167 C 369.560 21.770,369.741 21.828,371.542 21.831 L 373.167 21.833 373.167 22.399 C 373.167 22.977,373.376 23.167,374.014 23.167 C 374.322 23.167,374.333 23.357,374.333 28.750 L 374.333 34.333 373.685 34.333 C 373.129 34.333,373.021 34.273,372.930 33.911 C 372.801 33.397,372.255 33.167,371.167 33.167 C 370.512 33.167,370.336 33.105,370.254 32.845 C 370.068 32.259,369.084 31.833,367.918 31.833 L 366.854 31.833 366.802 31.292 L 366.750 30.750 364.958 30.703 L 363.167 30.655 363.167 30.194 C 363.167 29.436,362.916 29.333,361.061 29.333 L 359.354 29.333 359.302 28.792 L 359.250 28.250 356.815 28.204 L 354.379 28.158 354.226 27.623 C 354.007 26.862,353.911 26.854,344.531 26.843 C 335.714 26.833,335.667 26.837,335.667 27.673 L 335.667 28.167 333.268 28.167 C 330.717 28.167,330.667 28.183,330.667 29.014 C 330.667 29.298,330.539 29.333,329.495 29.333 C 328.531 29.333,328.304 29.385,328.215 29.625 C 327.949 30.346,327.441 30.661,326.542 30.664 L 325.667 30.667 325.667 31.250 L 325.667 31.833 324.680 31.833 C 323.348 31.833,323.167 31.924,323.167 32.591 C 323.167 33.113,323.129 33.150,322.542 33.198 C 321.971 33.245,321.912 33.297,321.864 33.792 C 321.817 34.288,321.764 34.333,321.239 34.333 C 320.824 34.333,320.667 34.407,320.667 34.602 C 320.667 34.965,319.985 35.660,319.625 35.664 C 319.465 35.665,319.333 35.778,319.333 35.915 C 319.333 36.277,318.806 36.833,318.463 36.833 C 318.229 36.833,318.167 36.972,318.167 37.490 C 318.167 38.128,318.149 38.148,317.542 38.198 C 316.971 38.245,316.912 38.297,316.864 38.792 C 316.826 39.189,316.730 39.333,316.503 39.333 C 315.764 39.333,315.667 39.489,315.667 40.674 L 315.667 41.813 315.042 41.865 L 314.417 41.917 314.368 43.115 L 314.319 44.313 313.785 44.365 L 313.250 44.417 313.167 45.917 C 313.083 47.420,312.772 48.167,312.231 48.167 C 311.887 48.167,311.833 48.635,311.833 51.640 C 311.833 54.354,311.808 54.602,311.517 54.784 C 310.652 55.324,310.212 59.333,311.018 59.333 C 311.666 59.333,311.800 59.914,311.870 63.025 C 311.946 66.395,311.994 66.624,312.639 66.699 C 313.070 66.748,313.085 66.787,313.132 67.966 C 313.170 68.906,313.243 69.207,313.453 69.287 C 314.044 69.514,314.315 69.983,314.366 70.866 L 314.417 71.750 315.042 71.802 L 315.667 71.853 315.667 72.992 C 315.667 74.178,315.764 74.333,316.503 74.333 C 316.730 74.333,316.826 74.477,316.864 74.875 C 316.912 75.370,316.971 75.421,317.542 75.468 C 318.149 75.519,318.167 75.538,318.167 76.177 C 318.167 76.695,318.229 76.833,318.463 76.833 C 318.806 76.833,319.333 77.390,319.333 77.752 C 319.333 77.930,319.521 78.000,320.000 78.000 L 320.667 78.000 320.667 78.667 C 320.667 79.315,320.682 79.333,321.239 79.333 C 321.764 79.333,321.817 79.379,321.864 79.875 C 321.912 80.370,321.971 80.421,322.542 80.468 C 323.109 80.515,323.167 80.565,323.167 81.004 C 323.167 81.629,323.555 81.833,324.739 81.833 L 325.667 81.833 325.667 82.417 L 325.667 83.000 326.907 83.000 L 328.147 83.000 328.198 83.625 L 328.250 84.250 329.533 84.299 C 330.639 84.340,330.830 84.392,330.919 84.675 C 331.122 85.314,331.840 85.500,334.117 85.504 L 336.250 85.507 336.719 86.170 L 337.188 86.833 345.333 86.833 C 354.126 86.833,354.333 86.814,354.333 86.009 L 354.333 85.509 356.792 85.463 L 359.250 85.417 359.302 84.875 L 359.354 84.333 360.914 84.333 C 362.817 84.333,362.963 84.282,363.097 83.567 L 363.204 83.000 364.360 83.000 C 365.614 83.000,366.411 82.709,366.576 82.191 C 366.657 81.935,366.891 81.862,367.856 81.793 C 369.090 81.705,369.326 81.558,369.331 80.875 C 369.333 80.523,369.403 80.500,370.482 80.500 C 371.674 80.500,371.833 80.403,371.833 79.677 C 371.833 79.436,372.029 79.361,372.875 79.273 C 373.563 79.202,373.987 79.070,374.125 78.884 C 374.293 78.657,374.333 79.754,374.333 84.551 C 374.333 90.304,374.323 90.500,374.014 90.500 C 373.536 90.500,373.167 90.677,373.167 90.905 C 373.167 91.423,372.419 91.793,371.211 91.874 C 369.955 91.958,369.500 92.170,369.500 92.668 C 369.500 92.915,369.311 92.973,368.324 93.029 C 367.087 93.099,366.841 93.252,366.836 93.953 C 366.833 94.308,366.765 94.324,365.042 94.369 L 363.250 94.417 363.198 94.958 L 363.146 95.500 361.114 95.517 C 358.524 95.538,358.265 95.607,358.198 96.298 L 358.146 96.833 354.086 96.833 C 349.548 96.833,349.500 96.840,349.500 97.518 L 349.500 98.000 345.342 98.000 L 341.184 98.000 340.739 97.417 L 340.294 96.833 336.668 96.833 L 333.042 96.833 332.944 96.347 C 332.818 95.716,332.536 95.633,330.083 95.514 C 328.107 95.418,328.083 95.412,328.025 95.000 C 327.940 94.397,327.759 94.339,325.969 94.336 L 324.354 94.333 324.302 93.792 C 324.250 93.253,324.244 93.249,323.035 93.083 C 321.996 92.941,321.791 92.857,321.617 92.507 C 321.396 92.061,320.927 91.876,319.958 91.850 C 319.427 91.836,319.333 91.777,319.331 91.458 C 319.327 90.832,319.130 90.706,317.958 90.581 L 316.833 90.461 316.833 89.907 C 316.833 89.388,316.795 89.350,316.209 89.302 C 315.661 89.256,315.575 89.189,315.500 88.750 C 315.419 88.272,315.367 88.243,314.300 88.100 C 313.212 87.953,313.183 87.937,313.134 87.433 C 313.088 86.967,313.022 86.912,312.458 86.865 C 311.871 86.816,311.833 86.779,311.833 86.258 C 311.833 85.693,311.620 85.500,310.997 85.500 C 310.770 85.500,310.674 85.356,310.636 84.958 C 310.588 84.464,310.529 84.412,309.958 84.365 C 309.371 84.316,309.333 84.279,309.333 83.758 C 309.333 83.191,309.120 83.000,308.486 83.000 C 308.242 83.000,308.167 82.882,308.167 82.496 C 308.167 82.127,308.066 81.953,307.792 81.848 C 307.176 81.613,306.860 81.128,306.803 80.333 C 306.755 79.651,306.702 79.569,306.216 79.426 C 305.788 79.300,305.673 79.170,305.633 78.765 C 305.591 78.335,305.492 78.239,304.966 78.115 L 304.348 77.970 304.299 76.860 C 304.250 75.752,304.249 75.750,303.732 75.700 C 303.222 75.650,303.212 75.631,303.112 74.568 C 302.989 73.251,302.942 73.167,302.323 73.167 L 301.833 73.167 301.833 71.917 L 301.833 70.667 301.250 70.667 L 300.667 70.667 300.667 69.014 C 300.667 66.969,300.619 66.833,299.899 66.833 L 299.333 66.833 299.333 63.449 C 299.333 59.901,299.275 59.590,298.583 59.470 C 298.267 59.415,298.248 59.264,298.204 56.550 L 298.159 53.687 298.746 53.219 L 299.333 52.750 299.333 50.177 C 299.333 47.506,299.520 46.833,300.261 46.833 C 300.574 46.833,300.667 46.419,300.667 45.012 C 300.667 43.673,300.804 43.376,301.542 43.114 C 301.782 43.029,301.833 42.804,301.833 41.839 C 301.833 40.709,301.848 40.667,302.238 40.667 C 302.912 40.667,303.167 40.253,303.167 39.155 C 303.167 38.292,303.207 38.167,303.486 38.167 C 304.170 38.167,304.333 37.986,304.333 37.232 C 304.333 36.829,304.412 36.500,304.509 36.500 C 304.894 36.500,305.667 35.426,305.667 34.890 C 305.667 34.408,305.720 34.349,306.208 34.302 C 306.701 34.255,306.755 34.194,306.801 33.635 C 306.847 33.078,306.902 33.015,307.384 32.968 C 307.852 32.923,307.927 32.846,308.000 32.338 C 308.057 31.941,308.211 31.696,308.488 31.558 C 308.909 31.348,309.317 30.758,309.327 30.344 C 309.336 29.992,310.011 29.333,310.362 29.333 C 310.547 29.333,310.667 29.212,310.667 29.026 C 310.667 28.581,311.152 28.212,311.917 28.076 C 312.752 27.926,313.000 27.732,313.000 27.230 C 313.000 26.922,313.090 26.833,313.403 26.833 C 314.095 26.833,314.333 26.658,314.333 26.149 C 314.333 25.732,314.396 25.667,314.800 25.667 C 315.392 25.667,315.667 25.392,315.667 24.800 C 315.667 24.346,315.692 24.333,316.570 24.333 C 317.778 24.333,318.000 24.227,318.000 23.649 C 318.000 23.208,318.051 23.167,318.589 23.167 C 318.999 23.167,319.208 23.078,319.280 22.875 C 319.539 22.142,320.032 21.833,320.946 21.833 C 321.678 21.833,321.834 21.782,321.839 21.542 C 321.848 21.040,322.522 20.724,323.806 20.618 C 325.152 20.507,325.500 20.324,325.500 19.730 C 325.500 19.348,325.546 19.333,326.738 19.333 C 327.924 19.333,328.002 19.309,328.595 18.750 C 329.189 18.189,329.262 18.167,330.482 18.165 C 332.303 18.162,333.000 18.022,333.000 17.658 C 333.000 16.801,332.757 16.833,339.151 16.833 C 345.449 16.833,345.500 16.827,345.500 16.050 C 345.500 15.571,345.773 15.549,345.921 16.015 M61.902 17.397 C 62.034 18.100,62.305 18.167,65.043 18.167 C 66.896 18.167,67.073 18.195,67.424 18.542 C 68.162 19.273,68.316 19.333,69.458 19.333 L 70.598 19.333 70.757 19.875 C 70.910 20.394,70.964 20.423,72.042 20.568 C 73.062 20.705,73.167 20.755,73.167 21.104 C 73.167 21.620,73.625 21.833,74.739 21.833 L 75.667 21.833 75.667 22.399 C 75.667 22.972,75.877 23.167,76.495 23.167 C 76.707 23.167,76.829 23.339,76.906 23.750 C 77.006 24.283,77.065 24.333,77.591 24.333 C 78.136 24.333,78.167 24.364,78.167 24.909 C 78.167 25.433,78.218 25.495,78.741 25.593 C 79.235 25.685,79.322 25.773,79.366 26.225 C 79.412 26.699,79.476 26.755,80.034 26.801 L 80.652 26.853 80.701 27.968 C 80.749 29.067,80.758 29.086,81.292 29.243 C 81.816 29.397,81.833 29.432,81.833 30.295 C 81.833 31.452,82.041 31.833,82.673 31.833 L 83.167 31.833 83.167 37.500 L 83.167 43.167 82.663 43.167 C 82.055 43.167,81.833 43.612,81.833 44.834 C 81.833 45.628,81.822 45.647,81.292 45.698 C 80.773 45.748,80.746 45.785,80.667 46.583 C 80.577 47.479,80.127 48.167,79.630 48.167 C 79.402 48.167,79.333 48.302,79.333 48.750 C 79.333 49.306,79.306 49.333,78.750 49.333 C 78.181 49.333,78.167 49.349,78.167 50.000 L 78.167 50.667 77.500 50.667 C 77.133 50.667,76.833 50.742,76.833 50.833 C 76.833 50.925,76.719 51.000,76.580 51.000 C 76.440 51.000,76.241 51.188,76.136 51.417 C 75.982 51.755,75.827 51.833,75.312 51.833 C 74.644 51.833,74.333 52.144,74.333 52.812 C 74.333 53.067,74.205 53.158,73.792 53.198 L 73.250 53.250 73.200 54.293 C 73.143 55.503,73.339 55.667,74.844 55.667 C 75.607 55.667,75.667 55.696,75.667 56.077 C 75.667 56.674,76.118 56.833,77.812 56.833 L 79.312 56.833 79.364 57.375 C 79.413 57.883,79.460 57.920,80.125 57.968 C 80.675 58.008,80.833 58.086,80.833 58.317 C 80.833 58.812,81.442 59.210,82.332 59.296 C 83.153 59.374,83.167 59.385,83.167 59.938 C 83.167 60.469,83.199 60.500,83.750 60.500 C 84.228 60.500,84.333 60.562,84.333 60.844 C 84.333 61.463,84.647 61.833,85.173 61.833 C 85.626 61.833,85.667 61.881,85.667 62.417 C 85.667 62.970,85.696 63.000,86.240 63.000 C 86.782 63.000,86.816 63.034,86.865 63.625 C 86.914 64.216,86.951 64.253,87.542 64.302 L 88.167 64.353 88.167 65.492 C 88.167 66.681,88.263 66.833,89.014 66.833 C 89.293 66.833,89.333 66.958,89.333 67.820 C 89.333 69.156,89.423 69.333,90.101 69.333 L 90.667 69.333 90.667 75.000 L 90.667 80.667 90.177 80.667 C 89.551 80.667,89.501 80.761,89.383 82.163 C 89.301 83.142,89.223 83.367,88.893 83.584 C 88.677 83.725,88.500 83.952,88.500 84.087 C 88.500 84.223,88.425 84.333,88.333 84.333 C 88.242 84.333,88.167 84.633,88.167 85.000 C 88.167 85.648,88.150 85.667,87.598 85.667 C 87.065 85.667,87.022 85.709,86.918 86.326 C 86.843 86.770,86.701 87.020,86.485 87.088 C 86.155 87.193,85.667 87.966,85.667 88.383 C 85.667 88.754,85.028 89.236,84.288 89.422 C 83.800 89.545,83.526 89.736,83.332 90.089 C 83.134 90.447,82.914 90.598,82.535 90.635 C 82.085 90.680,81.996 90.767,81.904 91.260 C 81.810 91.758,81.732 91.833,81.309 91.833 C 80.610 91.833,79.716 92.249,79.595 92.630 C 79.513 92.889,79.281 92.982,78.500 93.070 C 77.458 93.188,77.000 93.476,77.000 94.012 C 77.000 94.300,76.874 94.333,75.775 94.333 C 74.251 94.333,73.532 94.565,73.398 95.100 C 73.299 95.495,73.269 95.500,71.190 95.517 C 68.521 95.538,68.265 95.604,68.198 96.298 L 68.146 96.833 50.656 96.833 L 33.167 96.833 33.167 56.833 L 33.167 16.833 47.481 16.833 L 61.796 16.833 61.902 17.397 M200.845 17.375 C 201.139 18.043,201.612 18.137,204.792 18.154 C 206.981 18.167,207.000 18.170,207.000 18.550 C 207.000 19.219,207.296 19.333,209.033 19.333 L 210.667 19.333 210.667 19.897 C 210.667 20.550,210.899 20.661,212.281 20.664 C 213.134 20.667,213.146 20.674,213.198 21.208 C 213.245 21.703,213.304 21.755,213.875 21.802 C 214.356 21.842,214.500 21.925,214.500 22.165 C 214.500 22.676,214.946 22.969,215.907 23.089 C 216.775 23.198,216.817 23.226,216.866 23.726 C 216.912 24.199,216.977 24.255,217.532 24.301 C 218.110 24.349,218.151 24.390,218.199 24.968 C 218.245 25.521,218.302 25.588,218.766 25.634 C 219.270 25.683,219.287 25.712,219.433 26.800 C 219.581 27.902,219.590 27.917,220.125 27.969 C 220.612 28.016,220.667 28.075,220.668 28.552 C 220.669 29.544,220.973 30.290,221.420 30.403 C 221.806 30.499,221.833 30.577,221.833 31.566 C 221.833 32.827,222.187 33.774,222.755 34.032 L 223.167 34.220 223.167 38.027 L 223.167 41.833 222.673 41.833 C 222.030 41.833,221.833 42.216,221.833 43.468 C 221.833 44.425,221.817 44.462,221.355 44.554 C 220.821 44.661,220.673 45.000,220.669 46.125 C 220.667 46.799,220.642 46.833,220.173 46.833 C 219.647 46.833,219.333 47.203,219.333 47.822 C 219.333 48.071,219.226 48.167,218.950 48.167 C 218.469 48.167,218.167 48.460,218.167 48.926 C 218.167 49.188,218.021 49.327,217.625 49.439 C 217.179 49.567,217.074 49.687,217.032 50.121 C 216.985 50.597,216.921 50.653,216.365 50.699 C 215.806 50.745,215.745 50.799,215.698 51.292 C 215.650 51.788,215.598 51.833,215.069 51.833 C 214.628 51.833,214.455 51.922,214.335 52.208 C 214.090 52.794,213.739 53.167,213.433 53.167 C 213.191 53.167,213.159 53.334,213.201 54.375 L 213.250 55.583 214.448 55.632 L 215.647 55.681 215.698 56.215 L 215.750 56.750 216.958 56.799 C 218.087 56.845,218.167 56.873,218.167 57.224 C 218.167 57.827,218.490 58.000,219.617 58.000 L 220.667 58.000 220.667 58.566 C 220.667 59.164,220.873 59.333,221.603 59.333 C 221.847 59.333,222.245 59.567,222.594 59.917 C 223.033 60.355,223.319 60.500,223.745 60.500 C 224.281 60.500,224.316 60.535,224.365 61.125 C 224.414 61.716,224.451 61.753,225.042 61.802 C 225.633 61.851,225.667 61.885,225.667 62.427 C 225.667 62.840,225.741 63.000,225.932 63.000 C 226.315 63.000,226.821 63.677,226.828 64.197 C 226.839 65.068,227.115 65.500,227.663 65.500 C 228.163 65.500,228.167 65.506,228.167 66.428 C 228.167 67.543,228.380 68.000,228.900 68.000 C 229.273 68.000,229.291 68.060,229.371 69.580 C 229.459 71.270,229.630 71.667,230.270 71.667 L 230.667 71.667 230.667 74.921 L 230.667 78.175 230.242 78.336 C 229.588 78.585,229.333 79.417,229.333 81.309 L 229.333 82.963 228.750 83.072 C 228.177 83.180,228.167 83.196,228.167 84.008 C 228.167 84.883,227.867 85.361,227.183 85.578 C 226.919 85.662,226.833 85.827,226.833 86.251 C 226.833 86.762,226.785 86.817,226.292 86.864 C 225.813 86.911,225.740 86.984,225.667 87.500 C 225.593 88.014,225.520 88.089,225.047 88.135 C 224.585 88.180,224.497 88.264,224.406 88.751 C 224.315 89.234,224.225 89.322,223.775 89.366 C 223.317 89.410,223.243 89.486,223.198 89.958 C 223.158 90.372,223.067 90.500,222.812 90.500 C 222.207 90.500,221.833 90.817,221.833 91.332 C 221.833 91.816,221.829 91.818,220.708 91.867 C 219.598 91.916,219.581 91.924,219.424 92.458 C 219.289 92.915,219.185 93.000,218.757 93.002 C 217.426 93.007,217.013 93.178,216.902 93.771 L 216.796 94.333 215.181 94.333 C 213.475 94.333,213.167 94.450,213.167 95.097 C 213.167 95.453,213.107 95.463,210.458 95.539 C 207.416 95.626,207.189 95.681,207.054 96.354 L 206.958 96.833 189.979 96.833 L 173.000 96.833 173.000 56.833 L 173.000 16.833 186.803 16.833 L 200.607 16.833 200.845 17.375 M45.707 39.375 L 45.750 50.583 53.804 50.627 C 62.661 50.674,62.832 50.660,63.038 49.867 C 63.175 49.338,63.185 49.333,64.221 49.333 C 65.347 49.333,65.667 49.160,65.667 48.550 C 65.667 48.239,65.757 48.167,66.146 48.167 C 66.972 48.167,67.780 47.727,67.973 47.172 C 68.087 46.845,68.263 46.667,68.471 46.667 C 68.958 46.667,69.179 46.285,69.284 45.262 C 69.376 44.372,69.400 44.333,69.861 44.333 C 70.608 44.333,70.667 43.926,70.667 38.750 C 70.667 33.539,70.611 33.167,69.837 33.167 C 69.360 33.167,69.333 33.131,69.333 32.500 C 69.333 31.849,69.319 31.833,68.750 31.833 C 68.194 31.833,68.167 31.806,68.167 31.250 C 68.167 30.682,68.149 30.667,67.510 30.667 C 66.872 30.667,66.852 30.649,66.802 30.042 C 66.752 29.437,66.727 29.415,66.055 29.366 C 65.535 29.328,65.293 29.213,65.093 28.908 C 64.946 28.683,64.715 28.500,64.579 28.500 C 64.444 28.500,64.333 28.425,64.333 28.333 C 64.333 28.224,61.111 28.167,54.999 28.167 L 45.664 28.167 45.707 39.375 M184.446 28.276 C 184.229 28.494,184.315 50.248,184.533 50.467 C 184.684 50.617,186.806 50.667,193.061 50.667 C 202.156 50.667,202.544 50.629,202.774 49.716 C 202.857 49.382,202.979 49.331,203.726 49.317 C 205.028 49.291,205.408 49.141,205.468 48.628 C 205.513 48.250,205.610 48.178,206.135 48.134 C 206.713 48.086,206.753 48.046,206.801 47.468 C 206.849 46.890,206.890 46.849,207.468 46.801 C 208.023 46.755,208.088 46.699,208.134 46.225 C 208.178 45.773,208.265 45.685,208.759 45.593 L 209.333 45.485 209.333 44.333 L 209.333 43.182 209.909 43.074 C 210.661 42.933,210.705 42.630,210.636 38.119 C 210.580 34.408,210.563 34.342,209.708 34.336 C 209.356 34.333,209.333 34.264,209.333 33.184 C 209.333 31.985,209.238 31.833,208.486 31.833 C 208.282 31.833,208.167 31.718,208.167 31.514 C 208.167 30.876,207.977 30.667,207.399 30.667 C 206.883 30.667,206.833 30.623,206.833 30.173 C 206.833 29.538,206.452 29.333,205.272 29.333 C 204.359 29.333,204.354 29.331,204.302 28.792 L 204.250 28.250 194.404 28.207 C 188.989 28.183,184.508 28.215,184.446 28.276 M45.667 74.247 L 45.667 86.660 46.043 86.755 C 46.250 86.807,50.589 86.827,55.684 86.800 C 65.642 86.746,65.500 86.759,65.500 85.896 L 65.500 85.500 67.982 85.500 C 70.624 85.500,70.667 85.486,70.667 84.653 C 70.667 84.369,70.794 84.333,71.816 84.333 C 73.041 84.333,73.167 84.247,73.167 83.403 C 73.167 83.030,73.229 83.000,74.011 83.000 C 75.051 83.000,75.500 82.777,75.500 82.261 C 75.500 81.990,75.675 81.763,76.058 81.537 C 76.610 81.211,76.833 80.695,76.833 79.748 C 76.833 79.450,76.954 79.348,77.405 79.263 C 78.162 79.121,78.212 78.699,78.132 73.167 C 78.065 68.572,78.030 68.364,77.312 68.221 C 76.884 68.135,76.833 68.057,76.833 67.479 C 76.833 66.852,76.816 66.833,76.250 66.833 C 75.694 66.833,75.667 66.806,75.667 66.250 C 75.667 65.681,75.651 65.667,75.000 65.667 L 74.333 65.667 74.333 65.000 C 74.333 64.350,74.319 64.333,73.755 64.333 C 73.242 64.333,73.160 64.272,73.037 63.792 C 72.903 63.272,72.860 63.248,71.990 63.207 C 70.735 63.147,70.333 63.035,70.333 62.744 C 70.333 61.842,70.227 61.835,57.458 61.834 L 45.667 61.833 45.667 74.247 M184.413 62.208 C 184.199 63.065,184.410 86.310,184.633 86.533 C 184.806 86.706,186.800 86.750,194.467 86.750 C 204.891 86.750,204.961 86.744,205.248 85.839 C 205.346 85.531,205.527 85.505,207.874 85.463 L 210.396 85.417 210.536 84.875 C 210.672 84.348,210.701 84.333,211.574 84.333 C 212.775 84.333,212.972 84.234,213.097 83.567 C 213.194 83.055,213.258 83.000,213.769 83.000 C 214.301 83.000,214.333 82.967,214.333 82.427 C 214.333 81.885,214.367 81.851,214.958 81.802 C 215.547 81.753,215.586 81.715,215.634 81.135 C 215.681 80.578,215.736 80.515,216.218 80.468 L 216.750 80.417 216.799 79.220 C 216.846 78.053,216.859 78.021,217.326 77.918 C 218.011 77.768,218.053 77.579,218.130 74.273 C 218.212 70.772,218.056 69.888,217.305 69.605 C 216.857 69.436,216.833 69.375,216.833 68.392 C 216.833 67.287,216.588 66.833,215.988 66.833 C 215.782 66.833,215.667 66.718,215.667 66.514 C 215.667 65.880,215.476 65.667,214.909 65.667 C 214.387 65.667,214.350 65.629,214.302 65.042 C 214.253 64.447,214.218 64.414,213.608 64.364 C 213.142 64.326,212.811 64.155,212.395 63.739 C 211.949 63.294,211.685 63.166,211.203 63.165 C 209.799 63.161,209.333 62.994,209.333 62.496 C 209.333 61.813,209.728 61.833,196.656 61.833 L 184.506 61.833 184.413 62.208 " stroke="none" fill="#040404" fill-rule="evenodd"></path><path id="path1" d="" stroke="none" fill="#080404" fill-rule="evenodd"></path><path id="path2" d="" stroke="none" fill="#080404" fill-rule="evenodd"></path><path id="path3" d="" stroke="none" fill="#080404" fill-rule="evenodd"></path><path id="path4" d="" stroke="none" fill="#080404" fill-rule="evenodd"></path></g></svg>