<?xml version="1.0" encoding="UTF-8"?>
<svg width="284px" height="47px" viewBox="0 0 284 47" version="1.1" xmlns="http://www.w3.org/2000/svg" xmlns:xlink="http://www.w3.org/1999/xlink">
    <g id="Page-1" stroke="none" stroke-width="1" fill="none" fill-rule="evenodd">
        <g id="Group-2" transform="translate(0.200000, 0.600000)" fill="#000000" fill-rule="nonzero">
            <g id="Group" transform="translate(36.800000, 13.400000)">
                <path d="M18.5,32.4 C8.3,32.4 0.6,25.6 0.6,16.5 C0.6,7.1 8,0.6 18.5,0.6 C29,0.6 36.3,7.1 36.3,16.5 C36.4,25.6 28.7,32.4 18.5,32.4 Z M18.5,5.3 C10.9,5.3 6.9,10.9 6.9,16.5 C6.9,22.1 10.5,27.7 18.5,27.7 C26.5,27.7 30,22.1 30,16.5 C30,11 26.1,5.3 18.5,5.3 Z" id="Shape"></path>
                <path d="M73.9,31.7 L68,31.7 L68,16 C68,11.8 67.3,9.2 65.7,7.6 C64.4,6.3 62.5,5.7 60,5.9 C53.9,6.3 49.4,10.5 48.8,11.1 L48.8,31.7 L43,31.7 L43,9.2 L43.1,9.1 C50.1,1.2 58.5,0.6 60.9,0.6 C69.6,0.6 74,5 74,13.6 L74,31.7 L73.9,31.7 Z" id="Path"></path>
            </g>
            <path d="M150.5,45.1 L144.6,45.1 L144.6,29.4 C144.6,25.2 143.9,22.6 142.3,21 C141.1,19.8 139.3,19.4 136.6,19.5 C130.8,19.9 126.1,23.6 125.4,24.4 L125.4,45.1 L119.5,45.1 L119.5,2.9 L125.4,3.55271368e-15 L125.4,17.9 C130.7,14.4 135.5,14 137.4,14 C146.1,14 150.5,18.4 150.5,27 L150.5,45.1 Z" id="Path"></path>
            <path d="M250.2,45.1 L244.3,45.1 L244.3,29.4 C244.4,25.3 243.7,22.6 242.1,21 C240.8,19.7 238.9,19.1 236.5,19.3 C230.8,19.6 226.2,23.5 225.4,24.2 L225.4,45.1 L219.5,45.1 L219.5,28.9 C219.5,19.6 215,19.4 212,19.3 C206.6,19.1 201.7,23.4 201,24.2 L201,45.1 L195.1,45.1 L195.1,22.6 L195.2,22.5 C202.1,14.6 210.4,14 212.8,14 C218.1,14 221.5,16.8 222.9,19.3 L223.2,19 C228.6,14.6 234.3,14 237.2,14 C245.8,14 250.1,18.4 250.1,27 L250.1,45.1 L250.2,45.1 Z" id="Path"></path>
            <path d="M13.9,45.1 L0,45.1 L0,4.7 L14.5,4.7 C16.5,4.7 18.8,4.7 20.8,5 C27,6 30.4,9.2 30.8,14.3 C30.8,14.5 30.8,14.7 30.8,14.8 C30.8,18.2 28.7,22.5 22.9,24 C28.5,25.1 32.3,29.1 32.3,34.3 C32.3,41.7 26.4,45.1 13.9,45.1 Z M6.3,40.2 L13.7,40.2 C18.9,40.2 25.9,39.5 25.9,33.6 C25.9,26.8 15.8,26.8 12.5,26.8 L6.3,26.8 L6.3,40.2 L6.3,40.2 Z M6.3,21.8 L12.3,21.8 C20.4,21.8 24.4,19.8 24.6,15.6 C24.7,12.8 23.2,10.9 20.2,10 C19.1,9.7 17.6,9.5 15.5,9.5 L6.3,9.5 L6.3,21.8 Z" id="Shape"></path>
            <path d="M170,45.8 C165.2,45.8 157.2,44.6 157.2,36.5 C157.2,27.5 167.4,26.2 173.5,26.2 L180.9,26.4 C180.9,20.9 178.6,19.1 171.7,19.1 C168.5,19.1 165.1,20.1 162.2,21.8 L161.6,22.2 L161.3,17 L161.6,16.9 C165.2,15.1 168.9,14.2 172.7,14.2 C182.4,14.2 186.7,18.1 186.7,26.7 L186.7,41.3 L186.6,41.4 C186.5,41.2 178.2,45.8 170,45.8 Z M176.3,30.9 C172.1,30.9 163.3,30.9 163.3,36.5 C163.3,40.6 168.8,40.9 170.5,40.9 C173.5,40.9 177,40 180.7,38.3 C180.8,38.3 180.8,38.3 180.8,38.2 L180.8,31 L176.3,30.9 Z" id="Shape"></path>
            <path d="M269.5,45.8 C266.9,45.8 262.1,45.8 257.8,44.3 L257.6,44.2 L258.3,39.5 L258.6,39.6 C261.6,40.6 265.5,41.1 267.9,41.1 C272,41.1 276.8,40.6 276.8,37.1 C276.8,34.6 273.2,33.4 269.3,32.3 L267.1,31.6 C262.3,30 257.7,27.8 257.3,23.1 C257.1,21 257.7,19.2 259,17.8 C262,14.5 268.1,14 271.5,14 C275.4,14 278.5,14.6 281,15.2 L281.3,15.3 L280.6,20 L280.3,19.9 C277.9,19.2 274.1,18.9 272.3,18.8 C272,18.8 271.6,18.8 271.3,18.8 C268,18.8 265.6,19.4 264.5,20.4 C264,20.9 263.8,21.4 263.8,22.1 C263.8,24.9 267.3,26 271.2,27.2 L272.3,27.5 C277.7,29.2 283.4,31.4 283.4,36.7 C283.5,42.4 278.3,45.8 269.5,45.8 Z" id="Path"></path>
        </g>
    </g>
</svg>