<?xml version="1.0" encoding="UTF-8" standalone="no"?>
<!DOCTYPE svg PUBLIC "-//W3C//DTD SVG 1.1//EN" "http://www.w3.org/Graphics/SVG/1.1/DTD/svg11.dtd">
<svg xmlns="http://www.w3.org/2000/svg" version="1.1" viewBox="0 0 403 128" width="270.0pt" height="84.0pt">

<path d="M 175.00 4.38 C 186.42 4.36 197.60 3.20 208.99 3.97 C 220.60 4.54 232.40 4.12 243.97 5.29 C 261.18 6.41 278.47 7.90 295.49 10.79 C 319.53 14.51 344.58 20.22 366.82 30.28 C 375.55 34.56 385.67 39.46 392.01 46.99 C 396.14 51.73 398.89 57.48 398.00 63.91 C 397.13 70.94 392.90 76.26 387.63 80.68 C 375.77 90.51 361.73 95.58 347.49 100.78 C 322.64 108.60 297.51 112.87 271.71 116.09 C 260.05 116.99 248.52 118.61 236.80 118.75 C 231.53 119.27 226.30 119.60 221.00 119.59 C 200.39 119.73 179.61 120.23 159.06 118.54 C 149.35 118.09 139.63 117.31 129.96 116.24 C 106.31 113.03 83.03 109.31 60.05 102.65 C 45.33 98.11 30.04 92.42 17.19 83.81 C 10.80 79.63 5.76 73.81 3.02 66.65 C 1.78 62.43 1.98 57.48 4.35 53.66 C 9.62 43.97 19.47 37.72 29.03 32.85 C 46.71 23.50 66.25 18.61 85.63 14.23 C 101.38 11.32 117.41 8.34 133.39 7.19 C 147.22 5.83 161.10 4.48 175.00 4.38 Z" fill="#e3e042" />
<path d="M 187.00 9.16 C 195.65 8.67 204.31 8.58 212.97 9.09 C 248.47 9.52 284.23 12.71 318.98 20.12 C 334.02 23.38 349.30 27.66 363.46 33.73 C 371.86 37.60 380.69 42.12 387.02 48.99 C 390.30 52.58 392.88 57.00 392.80 62.01 C 392.94 67.55 389.82 72.27 386.09 76.08 C 379.03 83.25 368.94 88.02 359.76 91.88 C 337.04 100.97 312.16 105.94 288.02 109.46 C 247.35 115.03 205.98 116.40 165.00 114.31 C 133.24 112.50 101.09 108.82 70.21 100.95 C 54.57 96.76 38.69 91.72 24.83 83.16 C 19.57 79.81 14.16 75.33 11.17 69.76 C 8.46 65.03 8.51 58.87 11.26 54.17 C 14.14 48.78 19.31 44.65 24.30 41.30 C 32.11 36.32 40.73 32.47 49.49 29.47 C 75.13 20.39 103.07 15.73 130.03 12.59 C 148.94 10.63 167.97 9.22 187.00 9.16 Z" fill="#1f1b18" />
<path d="M 101.32 41.60 C 105.09 41.37 108.90 41.51 112.68 41.50 C 112.68 43.47 112.67 45.45 112.66 47.42 L 109.79 47.61 C 111.47 53.30 113.22 58.97 114.99 64.62 C 116.58 58.90 118.32 53.23 119.98 47.53 C 118.88 47.51 117.79 47.49 116.70 47.47 C 116.72 45.47 116.74 43.47 116.76 41.47 C 121.05 41.52 125.33 41.50 129.62 41.49 C 129.61 43.47 129.60 45.46 129.59 47.45 C 128.38 47.49 127.16 47.54 125.95 47.59 C 123.42 57.46 120.11 67.14 117.30 76.94 C 115.21 76.86 113.13 76.78 111.05 76.66 C 109.66 71.26 107.94 65.96 106.08 60.71 C 104.83 66.10 103.13 71.44 101.53 76.74 C 99.56 76.88 97.58 77.04 95.61 77.21 C 92.28 67.39 89.32 57.44 86.32 47.52 C 85.14 47.50 83.95 47.48 82.76 47.46 C 82.76 45.49 82.76 43.52 82.74 41.54 C 87.60 41.51 92.46 41.49 97.33 41.48 C 97.34 43.46 97.36 45.44 97.39 47.42 C 96.28 47.45 95.17 47.49 94.06 47.52 C 95.66 53.20 97.49 58.82 99.04 64.52 C 100.85 58.88 102.46 53.18 104.06 47.48 L 101.16 47.50 C 101.19 45.54 101.15 43.56 101.32 41.60 Z" fill="#ffffff" />
<path d="M 170.26 43.83 L 170.45 41.44 C 172.18 41.48 173.90 41.51 175.63 41.53 C 175.61 45.63 175.63 49.72 175.66 53.82 C 173.87 53.79 172.09 53.75 170.31 53.69 C 169.37 52.08 168.46 50.18 167.10 48.88 C 164.80 46.99 161.66 47.00 158.91 47.69 C 155.15 49.24 153.44 53.01 152.84 56.80 C 152.38 61.02 152.90 65.78 156.36 68.66 C 158.81 71.32 163.39 71.21 166.24 69.30 C 168.85 67.62 169.75 64.53 170.91 61.83 C 172.95 62.86 174.99 63.89 177.04 64.88 C 175.49 69.09 173.61 72.90 169.57 75.23 C 164.04 78.11 156.57 77.84 151.19 74.73 C 144.84 70.56 142.74 62.15 144.11 55.00 C 145.16 48.11 150.71 42.08 157.75 41.18 C 162.35 40.22 166.24 41.83 170.26 43.83 Z" fill="#ffffff" />
<path d="M 183.28 41.57 C 190.24 41.34 197.24 41.57 204.20 41.56 C 204.18 43.52 204.17 45.48 204.15 47.44 C 202.68 47.46 201.20 47.48 199.72 47.50 C 201.96 55.24 204.21 62.98 206.41 70.74 C 207.71 70.75 209.01 70.76 210.31 70.78 C 210.31 72.76 210.33 74.74 210.37 76.72 C 205.10 76.72 199.83 76.75 194.56 76.71 C 194.55 74.72 194.53 72.72 194.51 70.72 C 195.90 70.74 197.29 70.73 198.68 70.72 C 198.17 68.70 197.61 66.70 197.13 64.67 C 194.35 64.69 191.58 64.67 188.80 64.67 C 188.25 66.67 187.63 68.65 187.09 70.65 C 188.53 70.70 189.97 70.77 191.42 70.83 C 191.42 72.79 191.43 74.75 191.47 76.71 C 186.74 76.73 182.01 76.73 177.29 76.75 C 177.28 74.74 177.28 72.73 177.29 70.71 C 178.60 70.73 179.91 70.74 181.21 70.75 C 183.30 62.98 185.26 55.18 187.48 47.45 C 186.04 47.45 184.61 47.47 183.18 47.53 C 183.18 45.55 183.12 43.55 183.28 41.57 Z" fill="#ffffff" />
<path d="M 246.31 41.56 C 251.21 41.32 256.13 41.60 261.04 41.47 C 264.78 41.43 268.74 41.70 271.65 44.33 C 276.95 48.66 276.23 57.95 270.95 61.97 C 267.53 64.24 262.45 63.76 258.49 63.88 C 258.46 66.20 258.46 68.52 258.45 70.83 C 259.88 70.79 261.31 70.74 262.74 70.68 C 262.79 72.69 262.80 74.70 262.82 76.71 C 257.29 76.70 251.76 76.73 246.23 76.76 C 246.22 74.75 246.22 72.74 246.26 70.72 C 247.61 70.71 248.95 70.70 250.30 70.68 C 250.18 62.97 250.23 55.25 250.24 47.54 C 248.88 47.50 247.53 47.48 246.17 47.49 C 246.16 45.53 246.07 43.51 246.31 41.56 Z" fill="#ffffff" />
<path d="M 305.76 41.47 C 305.81 45.21 305.81 48.94 305.79 52.67 C 303.77 52.66 301.75 52.63 299.73 52.59 C 299.76 50.88 299.78 49.17 299.79 47.46 C 296.43 47.46 293.08 47.46 289.73 47.53 C 289.79 50.22 289.75 52.91 289.79 55.59 C 292.45 55.60 295.11 55.62 297.77 55.60 C 297.78 57.57 297.79 59.54 297.81 61.51 C 295.13 61.53 292.45 61.51 289.77 61.56 C 289.79 64.61 289.78 67.65 289.74 70.70 C 293.09 70.75 296.43 70.79 299.77 70.78 C 299.77 69.03 299.76 67.28 299.75 65.53 C 301.74 65.53 303.73 65.53 305.73 65.52 C 305.80 69.25 305.82 72.98 305.78 76.71 C 296.40 76.65 287.02 76.86 277.64 76.67 C 277.64 74.69 277.64 72.72 277.63 70.74 C 278.95 70.73 280.27 70.72 281.59 70.71 C 281.49 62.98 281.56 55.25 281.57 47.52 C 280.28 47.50 278.99 47.49 277.70 47.47 C 277.68 45.50 277.65 43.52 277.61 41.54 C 286.99 41.50 296.38 41.53 305.76 41.47 Z" fill="#ffffff" />
<path d="M 347.51 41.59 C 350.97 40.47 352.99 41.63 355.54 43.84 C 355.77 43.06 356.02 42.27 356.26 41.49 C 357.98 41.51 359.70 41.53 361.42 41.55 C 361.39 45.15 361.38 48.74 361.40 52.34 C 359.74 52.32 358.08 52.30 356.42 52.27 C 355.49 50.60 354.90 47.87 352.79 47.36 C 351.32 47.23 349.86 47.34 348.38 47.44 C 348.59 48.97 347.95 51.51 349.49 52.42 C 353.28 55.32 358.93 56.51 361.46 60.81 C 364.06 65.62 363.11 71.21 359.82 75.44 C 357.46 76.29 354.61 77.61 352.07 77.14 C 350.57 76.76 349.24 75.54 347.99 74.63 C 346.50 77.58 344.41 76.41 341.67 76.82 C 341.69 72.77 341.70 68.73 341.72 64.68 C 343.45 64.70 345.18 64.72 346.91 64.73 C 347.36 66.26 347.64 68.10 348.56 69.42 C 349.66 70.35 350.95 71.08 352.16 71.86 C 354.76 69.79 355.54 69.17 355.88 65.67 C 352.46 62.73 348.35 60.87 344.82 58.11 C 339.30 54.02 340.73 43.69 347.51 41.59 Z" fill="#ffffff" />
<path d="M 38.74 42.61 C 43.20 42.36 47.69 42.56 52.16 42.54 C 52.17 43.94 52.21 45.35 52.25 46.75 C 51.03 46.97 49.82 47.20 48.61 47.44 C 48.73 54.30 48.70 61.18 48.71 68.04 C 48.64 71.13 48.44 74.47 45.58 76.34 C 42.83 78.30 39.31 77.16 36.24 76.83 C 36.22 75.36 36.19 73.90 36.16 72.43 C 38.05 72.40 39.95 72.37 41.85 72.34 C 43.08 64.08 42.15 55.51 42.48 47.17 C 41.18 47.18 39.88 47.19 38.58 47.20 C 38.62 45.67 38.61 44.13 38.74 42.61 Z" fill="#ffffff" />
<path d="M 211.34 41.51 C 219.73 41.93 228.76 40.51 236.92 42.61 C 239.58 45.67 241.39 48.76 240.79 52.98 C 240.58 56.59 237.66 58.29 235.37 60.66 C 237.22 63.94 238.88 67.32 240.47 70.73 C 241.86 70.73 243.26 70.72 244.66 70.70 C 244.66 72.72 244.64 74.74 244.63 76.76 C 241.37 76.74 238.11 76.73 234.86 76.67 C 232.63 71.58 230.12 66.61 227.95 61.49 C 226.67 61.42 225.38 61.37 224.09 61.35 C 224.11 64.59 224.12 67.84 224.28 71.08 C 225.58 71.12 226.87 71.18 228.16 71.23 C 228.16 73.04 228.16 74.85 228.16 76.66 C 222.57 76.81 216.98 76.74 211.39 76.68 C 211.39 74.72 211.40 72.75 211.40 70.78 C 212.85 70.76 214.30 70.74 215.75 70.72 C 215.68 62.98 215.66 55.23 215.73 47.49 C 214.27 47.48 212.82 47.46 211.36 47.45 C 211.35 45.47 211.34 43.49 211.34 41.51 Z" fill="#ffffff" />
<path d="M 309.14 41.48 C 318.83 41.49 328.51 41.54 338.20 41.52 C 338.13 46.17 338.38 50.86 338.03 55.50 C 336.25 55.68 334.42 55.71 332.63 55.77 C 332.62 53.00 332.64 50.24 332.64 47.48 C 331.00 47.46 329.35 47.45 327.71 47.44 C 327.68 55.21 327.72 62.98 327.67 70.75 C 329.28 70.75 330.88 70.75 332.49 70.74 C 332.50 72.73 332.51 74.73 332.53 76.73 C 326.52 76.70 320.50 76.75 314.48 76.70 C 314.50 74.71 314.52 72.72 314.53 70.73 C 316.16 70.74 317.78 70.75 319.41 70.76 C 319.36 62.99 319.34 55.22 319.44 47.46 C 317.79 47.45 316.14 47.44 314.49 47.43 C 314.52 50.17 314.53 52.91 314.56 55.65 C 312.76 55.65 310.96 55.65 309.16 55.64 C 309.18 50.92 309.15 46.20 309.14 41.48 Z" fill="#ffffff" />
<path d="M 224.17 47.25 C 226.78 47.43 229.32 47.73 231.83 48.53 C 232.08 51.03 232.90 53.67 230.26 55.22 C 228.31 55.73 226.20 55.70 224.20 55.86 C 224.14 52.99 224.13 50.12 224.17 47.25 Z" fill="#1f1b18" />
<path d="M 258.60 47.54 C 260.20 47.40 261.87 47.35 263.45 47.65 C 267.08 49.03 267.35 54.42 264.91 56.99 C 263.00 57.96 260.60 58.07 258.51 58.47 C 258.51 54.83 258.32 51.16 258.60 47.54 Z" fill="#1f1b18" />
<path d="M 193.06 48.88 C 194.07 52.40 194.95 55.98 195.79 59.55 C 193.95 59.56 192.10 59.57 190.26 59.57 C 191.20 56.01 192.15 52.45 193.06 48.88 Z" fill="#1f1b18" />
<path d="M 70.83 52.36 C 72.32 53.08 73.51 54.53 74.71 55.64 C 73.79 58.79 72.70 60.58 70.41 62.90 C 71.45 64.21 72.47 65.53 73.50 66.85 C 74.59 65.15 75.61 63.41 76.64 61.67 C 78.25 61.66 79.86 61.64 81.47 61.62 C 81.50 62.95 81.53 64.29 81.56 65.62 C 80.61 65.63 79.67 65.64 78.73 65.65 C 77.81 67.44 76.91 69.23 76.21 71.12 C 77.64 72.93 79.43 72.64 81.49 73.08 C 81.51 74.29 81.53 75.51 81.54 76.72 C 79.30 76.72 77.07 76.72 74.83 76.70 C 74.26 75.91 73.70 75.12 73.14 74.33 C 70.14 75.94 66.71 78.22 63.19 76.87 C 59.60 75.90 57.53 72.54 57.66 68.92 C 58.34 65.43 60.89 63.91 63.44 61.84 C 62.95 60.04 62.07 57.91 62.34 56.03 C 62.68 54.78 63.57 53.63 64.32 52.57 C 66.40 52.23 68.89 51.26 70.83 52.36 Z" fill="#ffffff" />
<path d="M 66.71 55.45 C 68.09 55.34 69.45 55.45 70.82 55.54 C 70.40 56.51 69.99 57.51 69.47 58.43 C 68.59 58.62 67.69 58.73 66.76 58.74 C 66.70 57.64 66.68 56.54 66.71 55.45 Z" fill="#1f1b18" />
<path d="M 65.98 64.83 L 66.44 65.30 C 68.04 67.19 69.39 69.19 70.79 71.23 C 68.82 71.79 66.95 72.91 64.89 72.30 C 63.95 71.33 63.15 70.27 62.34 69.20 C 62.91 68.09 63.50 66.98 64.11 65.88 C 64.72 65.52 65.35 65.17 65.98 64.83 Z" fill="#1f1b18" />
</svg>