<?xml version="1.0" encoding="UTF-8" standalone="no"?>
<!DOCTYPE svg PUBLIC "-//W3C//DTD SVG 1.1//EN" "http://www.w3.org/Graphics/SVG/1.1/DTD/svg11.dtd">
<svg xmlns="http://www.w3.org/2000/svg" version="1.1" viewBox="0 0 225 81" width="250.0pt" height="100.0pt">
<path d="M 0.00 0.00 L 225.00 0.00 L 225.00 81.00 L 0.00 81.00 L 0.00 0.00 Z" fill="#16566c" />
<path d="M 39.44 20.59 C 44.33 19.62 49.46 20.22 53.17 23.81 C 58.25 28.68 58.73 36.93 54.50 42.50 C 48.86 50.01 35.59 49.29 31.06 40.92 C 26.66 33.34 30.60 22.48 39.44 20.59 Z" fill="#020304" />
<path d="M 79.60 21.07 C 79.64 23.74 79.68 26.41 79.74 29.08 C 77.92 28.15 75.99 27.07 74.00 26.58 C 71.59 26.45 69.16 27.82 67.86 29.83 C 65.64 33.68 66.91 38.95 71.20 40.67 C 74.22 42.11 77.13 39.92 79.78 38.68 C 79.68 41.35 79.61 44.03 79.54 46.71 C 74.58 47.56 70.19 48.38 65.83 45.19 C 58.29 39.98 58.25 27.97 65.72 22.68 C 70.10 19.36 74.58 20.17 79.60 21.07 Z" fill="#020304" />
<path d="M 12.45 20.93 C 14.74 20.92 17.04 20.90 19.34 20.88 C 19.35 27.74 19.34 34.60 19.35 41.46 C 21.96 41.46 24.56 41.47 27.17 41.49 C 27.19 43.28 27.21 45.08 27.22 46.87 C 22.29 46.87 17.36 46.88 12.43 46.92 C 12.42 38.26 12.41 29.60 12.45 20.93 Z" fill="#020304" />
<path d="M 83.40 20.94 C 85.66 20.94 87.92 20.93 90.18 20.92 C 90.20 24.35 90.23 27.78 90.27 31.21 C 92.85 27.82 95.39 24.39 97.92 20.95 C 100.68 20.93 103.44 20.91 106.20 20.91 C 102.85 25.04 99.43 29.11 95.99 33.16 C 99.66 37.71 103.32 42.27 106.89 46.91 C 104.04 46.89 101.19 46.88 98.34 46.87 C 95.66 43.23 92.97 39.61 90.23 36.02 C 90.21 39.65 90.21 43.29 90.21 46.93 C 87.94 46.91 85.66 46.89 83.39 46.87 C 83.39 38.23 83.38 29.58 83.40 20.94 Z" fill="#020304" />
<path d="M 110.15 20.91 C 114.87 20.89 119.59 20.89 124.31 20.89 C 124.30 22.66 124.29 24.42 124.29 26.18 C 121.75 26.19 119.21 26.20 116.68 26.21 C 116.67 27.93 116.65 29.65 116.64 31.36 C 119.03 31.35 121.41 31.34 123.79 31.33 C 123.77 33.13 123.76 34.93 123.74 36.72 C 121.40 36.75 119.05 36.78 116.70 36.82 C 116.67 38.38 116.65 39.95 116.62 41.52 C 119.13 41.53 121.65 41.55 124.16 41.56 C 124.20 43.31 124.24 45.06 124.28 46.81 C 119.57 46.83 114.85 46.85 110.14 46.87 C 110.12 38.21 110.10 29.56 110.15 20.91 Z" fill="#020304" />
<path d="M 128.47 20.90 C 134.37 21.07 142.16 19.60 146.65 24.34 C 152.04 29.53 152.08 38.46 146.52 43.54 C 142.14 48.01 134.22 46.53 128.53 46.77 C 128.57 38.14 128.41 29.52 128.47 20.90 Z" fill="#020304" />
<path d="M 173.53 24.43 C 174.42 27.78 171.91 29.28 170.05 31.55 C 169.77 36.90 169.82 42.24 169.68 47.59 C 168.86 46.85 168.05 46.11 167.24 45.37 C 165.68 45.25 164.12 45.14 162.57 45.02 C 164.06 44.35 165.54 43.68 167.03 43.01 C 166.03 42.61 165.02 42.21 164.02 41.81 C 164.93 40.88 165.84 39.94 166.75 39.00 C 165.82 38.48 164.89 37.95 163.96 37.43 C 165.19 37.05 166.41 36.67 167.64 36.28 C 167.66 34.69 167.68 33.09 167.69 31.49 C 165.72 29.03 162.92 27.14 164.62 23.61 C 166.58 19.69 172.47 20.04 173.53 24.43 Z" fill="#020304" />
<path d="M 177.20 20.93 C 179.46 20.91 181.72 20.90 183.98 20.88 C 187.99 26.15 192.07 31.36 196.18 36.55 C 196.21 31.33 196.21 26.12 196.21 20.91 C 198.40 20.90 200.58 20.89 202.77 20.89 C 202.82 29.55 202.79 38.21 202.79 46.87 C 200.54 46.87 198.30 46.88 196.05 46.89 C 192.05 41.73 188.16 36.53 183.94 31.55 C 183.86 36.66 183.87 41.77 183.88 46.89 C 181.68 46.88 179.49 46.88 177.29 46.88 C 177.11 38.23 177.17 29.58 177.20 20.93 Z" fill="#020304" />
<path d="M 168.92 21.67 C 170.38 23.60 173.01 25.27 170.81 27.78 C 169.62 29.65 166.84 28.46 166.38 26.62 C 165.72 24.79 168.05 23.04 168.92 21.67 Z" fill="#16566c" />
<path d="M 46.00 23.82 C 49.98 24.71 51.66 27.65 53.80 30.76 C 47.69 29.62 41.62 28.22 35.64 26.55 C 39.00 24.56 41.88 22.62 46.00 23.82 Z" fill="#16566c" />
<path d="M 135.37 26.07 C 137.34 26.21 139.70 26.46 141.33 27.65 C 145.20 30.72 145.20 37.24 141.27 40.25 C 139.37 41.38 136.87 41.62 134.75 42.15 C 134.83 36.83 134.59 31.34 135.37 26.07 Z" fill="#16566c" />
<path d="M 42.03 35.65 C 42.93 36.36 43.83 37.09 44.70 37.86 C 43.49 39.99 42.12 42.02 40.66 43.99 C 40.54 41.72 40.43 39.46 40.53 37.19 C 41.02 36.67 41.52 36.15 42.03 35.65 Z" fill="#16566c" />
<path d="M 12.70 51.34 C 16.72 51.12 20.88 51.20 24.91 51.32 C 26.61 51.21 27.40 53.64 28.43 54.66 C 25.86 53.62 24.25 51.93 21.38 52.90 C 22.58 55.76 26.23 56.08 27.74 58.27 C 28.54 60.86 26.43 62.29 23.99 62.25 C 20.89 62.51 20.63 59.75 19.27 57.69 C 20.70 58.85 22.11 60.05 23.51 61.25 C 24.77 60.53 26.03 59.80 27.29 59.07 C 23.86 57.24 20.78 56.69 19.74 52.44 C 17.75 52.61 15.77 52.78 13.78 52.95 C 13.77 53.84 13.76 54.74 13.75 55.63 C 15.77 55.83 17.78 56.04 19.79 56.26 C 17.78 56.70 15.75 57.11 13.73 57.51 C 13.75 58.45 13.77 59.38 13.79 60.32 C 16.01 60.71 18.23 61.11 20.44 61.57 C 17.76 61.80 15.08 61.98 12.39 62.12 C 12.40 58.55 12.24 54.89 12.70 51.34 Z" fill="#020304" />
<path d="M 32.98 50.86 C 35.61 50.82 36.28 53.78 37.47 55.55 C 35.78 54.28 34.13 52.96 32.49 51.64 C 31.61 53.01 30.36 54.43 29.99 56.04 C 29.68 58.07 31.50 59.96 32.49 61.60 C 34.11 60.26 35.75 58.93 37.41 57.61 C 36.04 59.65 35.92 62.22 33.00 62.30 C 26.92 62.44 26.97 50.61 32.98 50.86 Z" fill="#020304" />
<path d="M 41.62 50.02 C 43.34 54.16 44.64 58.41 45.67 62.77 C 44.60 61.43 43.54 60.09 42.49 58.74 C 41.69 58.74 40.90 58.74 40.10 58.75 C 39.08 60.06 38.06 61.37 37.03 62.68 C 37.96 58.18 39.26 53.97 41.62 50.02 Z" fill="#020304" />
<path d="M 46.52 51.12 C 48.79 51.15 51.07 51.18 53.34 51.20 C 53.62 52.77 53.91 54.32 54.03 55.92 C 52.84 57.52 50.08 57.52 48.29 58.05 C 47.80 59.68 47.31 61.31 46.80 62.93 C 46.56 58.99 46.50 55.06 46.52 51.12 Z" fill="#020304" />
<path d="M 55.34 51.25 C 58.05 50.78 60.66 51.30 63.25 52.11 C 61.03 52.45 58.79 52.67 56.55 52.90 C 56.56 53.88 56.57 54.85 56.58 55.82 C 58.30 55.83 60.03 55.85 61.76 55.86 L 61.70 57.15 C 59.98 57.12 58.26 57.08 56.55 57.05 C 56.52 58.21 56.50 59.37 56.48 60.52 C 58.78 60.63 61.08 60.74 63.38 60.86 C 63.40 57.56 63.35 54.26 63.44 50.97 C 65.73 51.05 68.11 51.23 70.36 51.71 C 71.48 55.13 70.60 59.32 70.58 62.88 C 70.02 61.22 69.46 59.55 68.91 57.89 C 67.55 57.73 66.20 57.57 64.84 57.42 C 64.83 58.84 64.83 60.27 64.83 61.70 C 61.59 61.82 58.34 61.93 55.09 61.98 C 55.06 58.43 54.87 54.77 55.34 51.25 Z" fill="#020304" />
<path d="M 74.48 51.49 C 76.37 50.50 79.08 50.78 80.42 52.56 C 82.43 55.95 81.84 61.83 77.02 62.29 C 71.60 62.21 70.36 54.11 74.48 51.49 Z" fill="#020304" />
<path d="M 85.27 51.26 C 87.61 50.22 90.35 51.44 91.23 53.82 C 92.21 56.54 91.81 60.53 88.83 61.83 C 86.21 63.10 83.05 61.24 82.50 58.47 C 81.96 56.02 82.52 52.18 85.27 51.26 Z" fill="#020304" />
<path d="M 93.09 50.09 C 95.33 52.96 96.70 56.11 97.79 59.56 C 98.87 56.20 100.27 53.05 102.36 50.19 C 102.80 54.53 102.74 58.64 102.14 62.96 C 101.66 60.21 101.38 57.45 101.06 54.67 C 100.00 57.36 98.92 60.04 97.76 62.69 C 96.60 60.03 95.48 57.34 94.51 54.60 C 94.31 57.39 94.00 60.15 93.29 62.86 C 92.65 58.61 92.69 54.36 93.09 50.09 Z" fill="#020304" />
<path d="M 108.03 51.09 C 110.86 50.89 111.41 53.17 112.94 55.00 C 111.56 54.12 110.19 53.23 108.83 52.32 C 107.96 52.37 107.08 52.43 106.20 52.48 C 105.86 54.39 105.05 56.62 105.44 58.55 C 105.90 60.46 108.64 60.56 110.19 61.19 C 110.61 60.08 111.03 58.97 111.45 57.86 C 110.10 57.47 108.74 57.08 107.39 56.68 C 109.07 56.54 110.76 56.39 112.45 56.25 C 112.48 58.06 112.51 59.87 112.53 61.68 C 109.87 61.45 105.69 62.81 104.48 59.57 C 103.49 56.53 103.79 51.22 108.03 51.09 Z" fill="#020304" />
<path d="M 114.44 50.50 C 115.60 53.89 115.33 57.26 115.32 60.78 C 117.29 60.81 119.25 60.84 121.22 60.88 C 122.18 57.10 123.40 53.51 125.45 50.16 C 126.98 54.20 128.10 58.37 129.49 62.46 C 127.78 60.64 125.99 59.10 123.97 57.64 C 123.29 59.00 122.61 60.36 121.93 61.72 C 119.30 61.76 116.66 61.79 114.02 61.82 C 113.88 58.02 113.78 54.26 114.44 50.50 Z" fill="#020304" />
<path d="M 136.02 51.81 C 136.71 52.94 137.34 54.10 137.92 55.30 C 136.51 54.21 135.12 53.10 133.75 51.97 C 132.69 52.65 131.63 53.33 130.58 54.02 C 133.03 55.40 135.40 56.71 137.84 58.13 C 138.55 55.72 138.30 52.15 141.19 51.15 C 144.32 49.82 145.47 52.84 147.39 54.61 C 145.62 53.82 143.88 52.87 142.04 52.25 C 140.72 53.15 139.69 54.31 139.53 55.96 C 139.05 58.37 141.23 59.96 142.49 61.72 C 143.55 60.68 144.61 59.65 145.67 58.61 C 144.47 57.84 143.27 57.07 142.06 56.30 C 143.58 56.30 145.10 56.31 146.63 56.31 C 146.66 58.12 146.70 59.93 146.73 61.73 C 145.17 61.79 143.59 61.88 142.02 61.83 C 140.54 62.02 139.46 59.89 138.50 59.05 C 136.38 60.73 135.06 62.92 132.00 62.16 C 130.70 60.99 129.94 59.11 129.08 57.61 C 130.56 58.91 132.01 60.23 133.44 61.57 C 134.32 60.90 135.18 60.21 136.03 59.50 C 135.33 57.47 132.04 56.79 130.46 55.39 C 130.22 54.07 130.23 52.66 130.21 51.32 C 132.08 51.32 134.24 51.15 136.02 51.81 Z" fill="#020304" />
<path d="M 150.32 51.30 C 154.38 49.64 157.47 53.04 157.16 57.01 C 157.33 60.96 152.98 63.71 149.61 61.38 C 146.80 59.26 146.83 52.81 150.32 51.30 Z" fill="#020304" />
<path d="M 157.89 50.09 C 159.25 53.03 160.22 56.10 161.08 59.22 C 161.87 56.35 162.66 53.49 163.80 50.73 C 165.29 53.39 166.05 56.20 166.84 59.13 C 167.68 56.03 168.71 53.01 170.10 50.12 C 169.52 54.46 168.35 58.62 166.91 62.74 C 165.75 59.74 164.80 56.67 163.88 53.59 C 163.10 56.67 162.29 59.74 161.33 62.77 C 159.26 58.54 158.24 54.80 157.89 50.09 Z" fill="#020304" />
<path d="M 178.90 51.15 C 181.02 51.28 181.10 52.80 181.78 54.42 C 180.53 53.54 179.32 52.57 178.10 51.65 C 177.26 52.59 176.32 53.52 175.66 54.59 C 175.27 56.41 175.32 58.35 175.26 60.20 C 176.45 60.47 177.65 60.74 178.85 61.02 C 179.94 60.19 181.02 59.35 182.12 58.53 C 181.39 59.61 180.50 61.75 178.97 61.72 C 172.44 63.26 172.36 49.73 178.90 51.15 Z" fill="#020304" />
<path d="M 185.42 51.37 C 188.34 49.90 191.59 51.87 192.00 55.03 C 192.65 58.43 191.13 62.52 187.03 62.05 C 181.96 61.66 181.24 53.34 185.42 51.37 Z" fill="#020304" />
<path d="M 193.61 50.07 C 195.74 52.90 197.10 56.06 198.15 59.42 C 199.30 56.11 200.72 53.00 202.76 50.14 C 203.32 54.43 203.37 58.63 202.33 62.86 C 201.97 60.12 201.78 57.37 201.65 54.60 C 200.68 57.23 199.65 59.82 198.35 62.30 C 196.91 59.99 195.88 57.53 194.88 55.01 C 194.76 57.71 194.57 60.39 194.23 63.07 C 192.94 58.78 193.02 54.47 193.61 50.07 Z" fill="#020304" />
<path d="M 76.26 52.32 C 81.21 51.59 81.64 60.60 76.96 60.89 C 72.52 61.00 72.32 53.30 76.26 52.32 Z" fill="#16566c" />
<path d="M 86.27 52.25 C 89.54 52.01 90.77 55.18 90.14 57.95 C 89.93 60.33 86.61 62.11 84.97 60.03 C 82.54 58.08 83.52 53.42 86.27 52.25 Z" fill="#16566c" />
<path d="M 151.46 52.45 C 152.28 51.63 153.93 52.82 154.61 53.40 C 156.63 55.72 155.84 59.79 152.86 60.91 C 148.31 60.80 147.80 54.24 151.46 52.45 Z" fill="#16566c" />
<path d="M 186.49 52.49 C 188.57 51.49 190.64 54.00 190.67 55.97 C 191.18 57.91 189.25 61.52 187.08 60.90 C 183.07 60.45 183.31 53.82 186.49 52.49 Z" fill="#16566c" />
<path d="M 47.94 51.85 C 49.33 52.32 50.78 52.72 52.10 53.35 C 52.39 54.29 52.65 55.25 52.86 56.22 C 51.18 56.25 49.49 56.28 47.81 56.30 C 47.85 54.82 47.90 53.34 47.94 51.85 Z" fill="#16566c" />
<path d="M 64.81 51.92 C 66.32 52.34 67.88 52.69 69.35 53.28 C 69.57 54.29 69.75 55.31 69.89 56.34 C 68.18 56.32 66.46 56.31 64.75 56.28 C 64.77 54.83 64.79 53.37 64.81 51.92 Z" fill="#16566c" />
<path d="M 41.34 54.65 C 42.72 54.82 42.62 57.01 41.34 57.30 C 39.93 57.13 40.10 54.96 41.34 54.65 Z" fill="#16566c" />
<path d="M 125.06 54.72 C 126.45 55.45 126.44 56.38 125.03 57.51 C 123.65 56.36 123.66 55.43 125.06 54.72 Z" fill="#16566c" />
</svg>