<?xml version="1.0" encoding="UTF-8" standalone="no"?>
<!DOCTYPE svg PUBLIC "-//W3C//DTD SVG 1.1//EN" "http://www.w3.org/Graphics/SVG/1.1/DTD/svg11.dtd">
<svg xmlns="http://www.w3.org/2000/svg" version="1.1" viewBox="0 0 250 92" width="502.0pt" height="92.0pt">
<path d="M 0.00 0.00 L 0.69 0.00 C 0.56 30.65 0.56 61.35 0.69 92.00 L 0.00 92.00 L 0.00 0.00 Z" fill="#b0a573" />
<path d="M 0.69 0.00 L 250.00 0.00 L 250.00 92.00 L 0.69 92.00 C 0.56 61.35 0.56 30.65 0.69 0.00 Z" fill="#861e41" />
<path d="M 9.82 22.73 C 12.95 22.72 16.09 22.72 19.23 22.72 C 19.23 23.67 19.24 24.62 19.24 25.58 C 17.03 25.57 14.81 25.56 12.60 25.54 C 12.59 27.73 12.58 29.91 12.58 32.10 C 11.66 32.10 10.75 32.11 9.84 32.11 C 9.83 28.98 9.82 25.85 9.82 22.73 Z" fill="#b0a573" />
<path d="M 116.32 24.75 C 117.11 24.40 117.90 24.08 118.72 23.80 C 118.76 26.16 118.77 28.52 118.78 30.87 C 120.92 30.82 123.06 30.77 125.20 30.71 C 125.31 31.68 125.43 32.64 125.57 33.60 C 123.30 33.60 121.02 33.59 118.75 33.57 C 118.76 35.78 118.76 37.98 118.77 40.19 C 117.90 40.19 117.02 40.18 116.15 40.18 C 116.15 37.99 116.15 35.79 116.15 33.59 C 113.92 33.59 111.69 33.59 109.46 33.60 C 109.42 32.72 109.38 31.83 109.35 30.95 C 111.59 30.89 113.83 30.82 116.07 30.75 C 116.11 28.76 116.04 26.72 116.32 24.75 Z" fill="#b0a573" />
<path d="M 89.01 29.97 C 90.41 31.61 92.58 32.38 91.11 34.83 C 89.34 36.94 87.10 36.20 86.01 33.91 C 85.82 31.65 87.49 31.12 89.01 29.97 Z" fill="#fcfafb" />
<path d="M 158.55 30.72 C 159.99 29.95 161.06 30.94 161.96 32.00 C 163.09 33.72 161.17 36.57 159.12 35.99 C 156.40 35.57 155.72 31.78 158.55 30.72 Z" fill="#fcfafb" />
<path d="M 17.30 30.91 C 20.99 30.77 24.66 30.80 28.35 30.80 C 28.37 31.74 28.40 32.69 28.42 33.63 C 27.48 33.74 26.54 33.84 25.60 33.94 C 26.77 38.87 28.12 43.73 29.56 48.58 C 31.17 44.50 32.59 40.36 33.93 36.19 C 33.54 35.52 33.15 34.86 32.76 34.19 C 31.91 33.96 31.05 33.73 30.20 33.51 C 30.23 32.60 30.25 31.70 30.28 30.80 C 33.81 30.81 37.33 30.81 40.86 30.80 C 40.90 31.73 40.94 32.65 40.98 33.58 C 39.88 33.70 38.77 33.83 37.67 33.95 C 39.01 38.78 40.45 43.59 41.95 48.37 C 43.60 43.66 44.98 38.86 46.14 34.01 C 44.98 33.89 43.82 33.76 42.66 33.64 C 42.69 32.69 42.71 31.75 42.74 30.80 C 46.26 30.79 49.79 30.78 53.31 30.92 C 51.59 33.60 49.43 35.33 48.70 38.50 C 47.18 43.98 45.59 49.45 44.02 54.92 C 42.39 54.91 40.76 54.91 39.13 54.90 C 37.90 50.70 36.69 46.49 35.32 42.33 C 33.93 46.54 32.54 50.75 31.10 54.94 C 29.58 54.95 28.06 54.95 26.54 54.96 C 24.84 49.36 23.35 43.69 21.76 38.06 C 21.10 35.00 18.73 33.65 17.30 30.91 Z" fill="#fcfafb" />
<path d="M 70.38 30.79 C 72.94 30.80 75.50 30.81 78.07 30.81 C 78.23 37.77 77.77 44.80 78.25 51.74 C 79.22 52.17 80.20 52.56 81.20 52.91 L 81.21 54.92 C 77.64 54.89 74.06 54.89 70.49 54.97 C 70.40 54.15 70.32 53.33 70.24 52.51 C 71.30 52.43 72.36 52.35 73.42 52.27 C 73.57 46.20 73.63 40.11 73.48 34.04 C 72.44 33.70 71.39 33.37 70.34 33.07 L 70.38 30.79 Z" fill="#fcfafb" />
<path d="M 127.90 30.82 C 133.83 30.97 139.94 30.37 145.80 31.21 C 149.31 31.82 151.47 34.44 150.80 38.08 C 150.51 40.44 148.51 40.87 146.85 42.17 C 148.34 43.10 150.64 43.95 151.31 45.68 C 152.22 48.00 151.98 51.27 150.02 53.01 C 148.20 54.69 145.37 54.79 143.03 54.89 C 137.98 54.96 132.93 54.87 127.88 54.87 C 127.89 54.10 127.90 53.34 127.92 52.57 C 129.15 52.28 130.36 51.94 131.56 51.54 C 132.01 45.65 131.74 39.65 131.56 33.74 C 130.34 33.72 129.11 33.70 127.88 33.68 L 127.90 30.82 Z" fill="#fcfafb" />
<path d="M 228.16 30.56 C 228.28 32.98 228.34 35.39 228.36 37.82 C 231.14 38.17 232.53 37.12 233.68 40.40 C 231.88 40.49 230.08 40.58 228.28 40.62 C 228.37 44.26 228.08 47.99 228.53 51.60 L 230.15 52.60 C 230.77 50.72 231.11 48.78 231.43 46.84 L 233.80 46.86 C 233.57 48.85 233.49 50.94 232.94 52.87 C 231.57 56.53 225.35 56.71 224.19 52.78 C 223.38 48.91 223.86 44.68 223.88 40.73 C 222.63 40.54 221.39 40.34 220.14 40.14 C 222.00 38.56 223.88 36.75 225.25 34.71 C 225.97 32.88 226.36 31.61 228.16 30.56 Z" fill="#fcfafb" />
<path d="M 136.92 33.61 C 139.20 33.71 141.62 33.61 143.84 34.17 C 146.52 35.32 146.37 39.71 143.63 40.67 C 141.47 41.19 139.13 41.09 136.93 41.19 C 136.92 38.66 136.92 36.14 136.92 33.61 Z" fill="#861e41" />
<path d="M 181.44 37.71 C 181.91 39.89 181.87 42.05 181.91 44.26 C 181.17 44.15 180.42 44.03 179.68 43.92 C 178.28 42.37 177.21 40.43 174.95 40.12 C 173.43 39.68 170.54 40.71 171.48 42.69 C 174.27 44.28 178.08 44.42 180.85 46.23 C 183.66 48.17 183.24 52.68 180.44 54.43 C 177.09 56.47 174.03 55.51 170.62 54.34 C 169.39 54.54 168.24 54.90 167.17 55.41 C 166.97 52.98 166.92 50.55 166.89 48.11 C 167.68 48.11 168.46 48.12 169.24 48.17 C 170.40 49.74 171.35 52.08 173.40 52.61 C 175.57 53.21 178.54 53.00 178.43 50.07 C 175.49 48.18 171.54 48.24 168.78 46.22 C 165.92 43.94 166.99 39.52 170.13 38.08 C 173.14 36.61 175.53 37.80 178.54 38.36 C 179.51 38.14 180.47 37.92 181.44 37.71 Z" fill="#fcfafb" />
<path d="M 51.06 38.18 C 54.44 37.63 58.00 37.92 61.41 37.97 C 60.64 39.83 59.97 40.34 58.31 41.29 C 59.50 44.15 60.71 47.00 61.95 49.84 C 63.11 46.86 64.23 43.87 65.31 40.87 C 64.37 40.70 63.44 40.52 62.51 40.35 C 62.53 39.54 62.55 38.72 62.57 37.91 C 65.47 37.90 68.36 37.90 71.25 37.90 C 71.27 38.69 71.28 39.48 71.30 40.27 C 70.50 40.49 69.71 40.70 68.91 40.92 C 65.81 46.98 64.04 53.75 60.57 59.57 C 58.90 62.32 56.13 63.49 53.05 62.23 C 50.17 61.05 49.02 56.60 52.19 55.03 C 54.89 53.88 55.21 56.14 56.22 57.96 C 55.23 58.80 54.24 59.65 53.27 60.51 C 57.33 60.41 58.06 58.11 59.84 55.11 C 57.52 50.46 55.78 45.47 53.12 41.02 C 52.04 40.64 50.95 40.27 49.85 39.92 L 51.06 38.18 Z" fill="#fcfafb" />
<path d="M 84.00 38.14 C 86.42 37.76 88.95 37.94 91.39 37.89 C 91.48 42.46 91.12 47.10 91.55 51.64 C 92.50 52.11 93.48 52.54 94.47 52.94 C 94.45 53.61 94.44 54.28 94.42 54.95 C 90.80 54.88 87.19 54.89 83.57 54.96 L 83.46 52.91 C 84.54 52.56 85.60 52.17 86.64 51.73 C 87.04 48.46 87.02 44.50 86.64 41.23 C 85.48 40.74 84.29 40.29 83.07 39.91 C 83.38 39.31 83.68 38.72 84.00 38.14 Z" fill="#fcfafb" />
<path d="M 109.94 39.10 C 112.31 41.07 112.31 44.11 112.90 46.92 C 108.67 46.90 104.44 46.86 100.21 46.91 C 100.72 48.33 101.17 49.84 101.87 51.17 C 103.43 53.11 106.50 53.23 108.09 51.26 C 109.78 49.44 110.45 49.03 112.96 48.46 C 112.20 50.21 111.60 52.73 109.99 53.92 C 107.00 56.26 101.99 56.24 98.96 53.97 C 95.28 51.23 94.62 45.58 96.72 41.69 C 99.06 37.12 106.07 35.89 109.94 39.10 Z" fill="#fcfafb" />
<path d="M 154.72 38.08 C 157.13 37.75 159.65 37.97 162.08 38.01 C 162.16 42.56 161.79 47.19 162.26 51.71 C 163.18 52.15 164.12 52.55 165.08 52.91 L 165.16 54.91 C 161.70 54.85 158.16 55.14 154.73 54.74 L 153.43 52.73 C 154.76 52.56 156.09 52.40 157.41 52.24 C 157.58 48.41 157.58 44.58 157.41 40.74 C 156.11 40.57 154.80 40.39 153.50 40.20 L 154.72 38.08 Z" fill="#fcfafb" />
<path d="M 196.90 38.70 C 197.80 38.18 198.69 37.66 199.59 37.13 C 199.74 39.51 199.88 41.88 200.05 44.25 C 199.29 44.14 198.53 44.02 197.77 43.90 C 196.65 42.68 195.44 40.77 193.78 40.28 C 191.87 39.64 190.33 40.79 188.57 41.40 C 191.65 44.85 196.01 43.89 199.45 46.63 C 201.71 48.72 201.11 52.87 198.51 54.45 C 195.09 56.49 191.94 55.52 188.51 54.20 C 187.35 54.67 186.19 55.13 185.03 55.59 C 185.05 53.09 185.07 50.59 185.10 48.09 C 185.80 48.09 186.51 48.09 187.22 48.08 C 188.69 50.02 189.50 52.37 192.18 52.78 C 194.38 53.13 196.53 52.74 196.48 50.03 C 193.55 48.15 189.56 48.24 186.84 46.19 C 184.32 44.07 184.84 40.23 187.51 38.50 C 190.72 36.49 193.66 37.47 196.90 38.70 Z" fill="#fcfafb" />
<path d="M 217.07 38.99 C 219.58 41.05 219.52 43.93 220.12 46.87 C 215.89 46.91 211.67 46.86 207.44 46.91 C 208.50 49.52 208.64 52.44 212.11 52.68 C 214.96 52.83 215.69 50.86 217.19 48.93 C 218.20 48.92 219.20 48.91 220.21 48.91 C 219.22 50.87 218.51 53.33 216.46 54.44 C 212.99 56.47 207.80 56.02 205.07 52.93 C 202.18 49.57 202.01 44.23 204.65 40.67 C 207.28 36.96 213.57 36.18 217.07 38.99 Z" fill="#fcfafb" />
<path d="M 104.96 39.83 C 106.77 39.69 107.49 42.99 108.33 44.17 C 105.64 44.22 102.96 44.22 100.27 44.18 C 101.49 42.47 102.24 39.33 104.96 39.83 Z" fill="#861e41" />
<path d="M 212.02 39.82 C 213.88 39.47 214.79 43.00 215.57 44.18 C 212.89 44.22 210.20 44.22 207.51 44.17 C 208.67 42.50 209.47 39.54 212.02 39.82 Z" fill="#861e41" />
<path d="M 136.92 43.79 C 139.37 43.93 142.14 43.71 144.48 44.52 C 147.22 45.84 147.21 50.21 144.54 51.59 C 142.17 52.38 139.39 52.12 136.92 52.25 C 136.92 49.43 136.92 46.61 136.92 43.79 Z" fill="#861e41" />
<path d="M 238.78 54.30 C 239.72 54.29 240.67 54.29 241.61 54.28 C 241.61 57.40 241.62 60.52 241.63 63.63 C 238.49 63.62 235.35 63.60 232.21 63.59 C 232.25 62.67 232.29 61.75 232.33 60.83 C 234.47 60.84 236.60 60.85 238.74 60.86 C 238.75 58.67 238.76 56.48 238.78 54.30 Z" fill="#b0a573" />
</svg>